<svg width="99" height="29" viewBox="0 0 99 29" fill="none" xmlns="http://www.w3.org/2000/svg">
<path d="M13.9518 28.8324H6.6131V15.0193H0V9.29895H20.6494V15.0193H13.9528V28.8324H13.9518Z" fill="#E6EEF6"/>
<path d="M45.2888 19.3729C45.2888 26.4609 42.4424 28.8324 34.0437 28.8324H22.1282V9.29895H33.8756C42.2467 9.29895 45.2888 11.7541 45.2888 18.786V19.372V19.3729ZM29.4669 14.6004V23.53H32.9829C37.3356 23.53 37.838 22.1624 37.838 19.2048V18.9541C37.838 15.9405 37.3356 14.6014 32.9829 14.6014H29.4669V14.6004Z" fill="#E6EEF6"/>
<path d="M73.0529 28.8324H64.7653L63.3426 25.4285H53.8831L52.4879 28.8324H44.5632L53.2696 9.29895H64.3475L73.0538 28.8324H73.0529ZM58.4866 14.2386L55.9469 20.4614H61.2769L58.7373 14.2386H58.4866Z" fill="#E6EEF6"/>
<path d="M98.1376 28.8324H90.7989V21.9126H81.5626V28.8324H74.2239V9.29895H81.5626V16.1913H90.7989V9.29895H98.1376V28.8324Z" fill="#E6EEF6"/>
<path d="M3.10378 6.17337C1.56044 6.17337 0.223191 5.83051 0 4.51036H1.22613C1.44932 5.12769 2.21197 5.23027 3.25004 5.23027C4.51036 5.23027 5.15334 5.01562 5.15334 4.35555V4.27862C5.15334 4.03833 5.07641 3.86738 4.9216 3.75531C4.76679 3.64419 4.46762 3.57486 4.01269 3.55776L2.24616 3.48938C0.779744 3.42954 0.18805 2.93187 0.18805 1.91184V1.85201C0.189 0.523312 1.17484 0 3.02685 0H3.21585C4.70791 0 5.95968 0.394146 6.19996 1.7067H4.98238C4.80193 1.09791 4.08202 0.94405 3.07909 0.94405C1.81022 0.94405 1.37239 1.20143 1.37239 1.75039V1.78458C1.37239 2.01632 1.44932 2.19582 1.59558 2.31644C1.74944 2.42756 2.05811 2.49689 2.51304 2.51399L4.27957 2.57382C5.74598 2.63365 6.32913 3.13132 6.32913 4.15135V4.22828C6.32913 5.72034 5.14574 6.17432 3.30228 6.17432H3.10473L3.10378 6.17337Z" fill="#E6EEF6"/>
<path d="M16.7374 6.17334C14.6707 6.17334 13.9081 5.44488 13.9081 3.66125V0.0854492H15.0915V3.57483C15.0915 4.70693 15.4942 5.15236 16.8665 5.15236H17.1923C18.5552 5.15236 18.9588 4.69838 18.9588 3.57483V0.0854492H20.1422V3.66125C20.1422 5.44488 19.371 6.17334 17.3129 6.17334H16.7383H16.7374Z" fill="#E6EEF6"/>
<path d="M29.1525 6.08786H27.9948V0.0854492H31.9305C32.7112 0.0854492 33.2763 0.230761 33.6287 0.513786C33.9886 0.796811 34.1691 1.28498 34.1691 1.99729V2.22049C34.1691 3.4808 33.5346 4.08959 31.9315 4.08959H29.1534V6.08691L29.1525 6.08786ZM29.1525 1.06274V3.1123H31.7244C32.753 3.1123 33.0018 2.83782 33.0018 2.13501V2.04098C33.0018 1.32107 32.7274 1.06369 31.7159 1.06369H29.1525V1.06274Z" fill="#E6EEF6"/>
<path d="M47.176 6.08786H41.7311V0.0854492H47.176V1.07129H42.8888V2.58899H47.176V3.57483H42.8888V5.10107H47.176V6.08691V6.08786Z" fill="#E6EEF6"/>
<path d="M56.1709 6.08786H55.0132V0.0854492H59.0344C60.5863 0.0854492 61.1866 0.513786 61.1866 1.62024V1.84343C61.1866 2.7438 60.8522 3.1123 60.1057 3.20632V3.24906C60.8256 3.36873 61.1866 3.57483 61.1866 4.61195V6.08691H60.0203V4.75821C60.0203 3.98702 59.78 3.81511 58.6745 3.81511H56.1709V6.08691V6.08786ZM56.1709 1.07129V2.82927H58.8293C59.7467 2.82927 60.0212 2.62318 60.0212 1.9802V1.92891C60.0212 1.25174 59.7211 1.07129 58.6583 1.07129H56.1719H56.1709Z" fill="#E6EEF6"/>
<path d="M74.503 6.08786H69.0581V0.0854492H74.503V1.07129H70.2158V2.58899H74.503V3.57483H70.2158V5.10107H74.503V6.08691V6.08786Z" fill="#E6EEF6"/>
<path d="M94.1637 6.17331C91.9005 6.17331 90.9745 5.33278 90.9745 3.3611V2.82069C90.9745 0.840467 91.9005 -6.10352e-05 94.1637 -6.10352e-05H94.67C96.9247 -6.10352e-05 97.8678 0.840467 97.8678 2.82069V3.3611C97.8678 5.33278 96.9247 6.17331 94.67 6.17331H94.1637ZM94.5759 5.17037C96.3168 5.15328 96.6768 4.54449 96.6768 3.23288V2.94131C96.6768 1.62971 96.3168 1.02092 94.5759 1.00382H94.2673C92.5178 1.02092 92.1579 1.62971 92.1579 2.94131V3.23288C92.1579 4.54449 92.5178 5.15328 94.2673 5.17037H94.5759Z" fill="#E6EEF6"/>
</svg>
